Coordinates
version=1
nRows=4
nColumns=63
inDegrees=yes

Units are S.I. units (second, meters, Newtons, ...)
If the header above contains a line with 'inDegrees', this indicates whether rotational values are in degrees (yes) or radians (no).

endheader
time	pelvis_tilt	pelvis_list	pelvis_rotation	pelvis_tx	pelvis_ty	pelvis_tz	hip_flexion_r	hip_adduction_r	hip_rotation_r	knee_angle_r	knee_angle_r_beta	ankle_angle_r	subtalar_angle_r	mtp_angle_r	hip_flexion_l	hip_adduction_l	hip_rotation_l	knee_angle_l	knee_angle_l_beta	ankle_angle_l	subtalar_angle_l	mtp_angle_l	L5_S1_Flex_Ext	L5_S1_Lat_Bending	L5_S1_axial_rotation	L4_L5_Flex_Ext	L4_L5_Lat_Bending	L4_L5_axial_rotation	L3_L4_Flex_Ext	L3_L4_Lat_Bending	L3_L4_axial_rotation	L2_L3_Flex_Ext	L2_L3_Lat_Bending	L2_L3_axial_rotation	L1_L2_Flex_Ext	L1_L2_Lat_Bending	L1_L2_axial_rotation	L1_T12_Flex_Ext	L1_T12_Lat_Bending	L1_T12_axial_rotation	Abs_r3	Abs_r2	Abs_r1	Abs_t1	Abs_t2	neck_flexion	neck_bending	neck_rotation	arm_flex_r	arm_add_r	arm_rot_r	elbow_flex_r	pro_sup_r	wrist_flex_r	wrist_dev_r	arm_flex_l	arm_add_l	arm_rot_l	elbow_flex_l	pro_sup_l	wrist_flex_l	wrist_dev_l
      7.77966102	      0.37224829	    -13.43749937	    114.84728970	      0.15262073	      0.39178255	      0.56460006	     -7.03067180	     -0.54432662	    -22.13081423	      0.78610740	      0.01372016	     12.67535488	      2.36802275	      0.00000000	     -5.51328674	      0.66875825	     -2.43041536	      0.70366101	      0.01228120	     11.77421777	      9.36536603	      0.00000000	      0.21435283	     -0.07557079	      1.06134123	      0.39807465	     -0.10050916	      1.12767506	      0.35216027	     -0.18374283	      1.12767506	      0.24498385	     -0.18374283	      0.92867358	      0.19904804	     -0.15410396	      0.86233975	      0.12248121	     -0.11705916	      0.79600592	      1.53110086	     -0.85487195	      5.90286153	      0.00000000	      0.00000000	     28.06956702	      1.83477228	     18.44844399	      3.66791959	    -15.08003392	     72.54911232	     24.61089754	     41.10713688	      5.50603913	      9.95359565	      8.21917705	     -8.78448839	    180.81724418	      5.08760125	     37.54247545	    -10.68094451	      1.33547242
      7.79661017	      0.34953618	    -13.50526449	    114.99925722	      0.15231961	      0.39260689	      0.56467081	     -7.01621182	     -0.60384929	    -22.21625862	      0.81345150	      0.01419741	     12.32095894	      2.28126287	      0.00000000	     -5.45488283	      0.71349805	     -2.34796851	      0.70257267	      0.01226221	     11.06233214	      9.18744821	      0.00000000	      0.21243231	     -0.08211808	      1.03543086	      0.39450805	     -0.10921704	      1.10014529	      0.34900505	     -0.19966189	      1.10014529	      0.24278889	     -0.19966189	      0.90600200	      0.19726465	     -0.16745518	      0.84128757	      0.12138382	     -0.12720090	      0.77657314	      1.51738278	     -0.92893609	      5.75875581	      0.00000000	      0.00000000	     28.03927618	      2.52781051	     18.63414683	      3.40941006	    -15.36904268	     71.54598903	     25.23326297	     39.66044400	      5.20127908	     10.74064337	      8.21702701	     -8.67691813	    182.40066879	      5.32634193	     38.99173402	    -11.79728508	      2.02780921
      7.81355932	      0.32199726	    -13.57726252	    115.00191925	      0.15239475	      0.39377482	      0.56508832	     -6.91532117	     -0.70265786	    -22.28826014	      0.88433486	      0.01543455	     11.70902495	      2.25611902	      0.00000000	     -5.32249942	      0.76517809	     -2.38655737	      0.73914932	      0.01290059	     10.55799671	      9.13885270	      0.00000000	      0.20265108	     -0.09105513	      1.02952403	      0.37634333	     -0.12110333	      1.09386928	      0.33293547	     -0.22139145	      1.09386928	      0.23160992	     -0.22139145	      0.90083352	      0.18818180	     -0.18567963	      0.83648827	      0.11579483	     -0.14104440	      0.77214302	      1.44751643	     -1.03003388	      5.72590378	      0.00000000	      0.00000000	     28.01820702	      2.87014160	     18.45926073	      3.46909334	    -15.68755285	     71.39876435	     25.60271991	     39.53296183	      5.27603129	     10.87334967	      8.20342162	     -8.69715786	    182.44298306	      5.26895552	     38.98958786	    -11.94858449	      2.08370203
      7.83050847	      0.33765639	    -13.72551146	    115.15679977	      0.15227746	      0.39468716	      0.56527418	     -6.78014810	     -0.71539877	    -21.67428060	      0.87789689	      0.01532219	     10.82924519	      0.65503014	      0.00000000	     -5.11282153	      0.81618613	     -1.57206457	      0.71670829	      0.01250892	     10.12456239	      7.98331110	      0.00000000	      0.21064539	     -0.10393544	      1.00905209	      0.39118956	     -0.13823414	      1.07211785	      0.34606931	     -0.25270864	      1.07211785	      0.24074662	     -0.25270864	      0.88292058	      0.19560531	     -0.21194516	      0.81985482	      0.12036278	     -0.16099600	      0.75678907	      1.50461897	     -1.17573853	      5.61204501	      0.00000000	      0.00000000	     27.97645068	      3.71447297	     18.40803832	      2.83258325	    -16.22725586	     68.29287353	     27.13290883	     37.42839376	      3.88269739	     14.06857280	      8.25962146	     -8.77999395	    182.77348779	      5.72246886	     38.13766060	    -13.87723593	      2.55983907
